<svg class="svg-icon" style="width: 1em;height: 1em;vertical-align: middle;fill: currentColor;overflow: hidden;" viewBox="0 0 1024 1024" version="1.1" xmlns="http://www.w3.org/2000/svg"><path d="M904.96 412.586667A234.24 234.24 0 0 0 704 298.666667h-75.093333a282.026667 282.026667 0 0 0-35.413334-42.666667A298.666667 298.666667 0 1 0 384 768h320a235.093333 235.093333 0 0 0 234.666667-234.666667 228.693333 228.693333 0 0 0-33.706667-120.746666z" fill="#BBDEFB" /><path d="M384 640H170.666667a42.666667 42.666667 0 0 1 0-85.333333h213.333333a42.666667 42.666667 0 0 0 0-85.333334 42.666667 42.666667 0 0 1 0-85.333333 128 128 0 0 1 0 256zM384 896H170.666667a42.666667 42.666667 0 0 1 0-85.333333h213.333333a42.666667 42.666667 0 0 1 0 85.333333zM469.333333 768H128a42.666667 42.666667 0 0 1 0-85.333333h341.333333a42.666667 42.666667 0 0 1 0 85.333333z" fill="#53AFFB" /></svg>