<svg width="40" height="40" viewBox="0 0 40 40" fill="none" xmlns="http://www.w3.org/2000/svg">
<g id="wind-speed 1">
<path id="Vector" d="M29.6875 20.3901V20.3906H8.39844C8.08764 20.3906 7.78957 20.2672 7.5698 20.0474C7.35003 19.8276 7.22656 19.5296 7.22656 19.2188C7.22656 18.908 7.35003 18.6099 7.5698 18.3901C7.78957 18.1703 8.08764 18.0469 8.39844 18.0469H29.6094V18.0464C29.6224 18.0464 29.6354 18.0469 29.6484 18.0469C30.6984 18.0468 31.7261 17.7445 32.6088 17.1761C33.4916 16.6077 34.192 15.7972 34.6266 14.8414C35.0611 13.8857 35.2113 12.825 35.0592 11.7861C34.9072 10.7473 34.4593 9.77417 33.7691 8.983C33.0789 8.19184 32.1755 7.61608 31.1669 7.3245C30.1583 7.03292 29.087 7.03785 28.0812 7.33869C27.0753 7.63953 26.1772 8.22358 25.4943 9.02105C24.8114 9.81853 24.3725 10.7957 24.23 11.8359H24.2168C24.2069 12.1396 24.0793 12.4275 23.8609 12.6388C23.6426 12.8501 23.3507 12.9682 23.0469 12.9682C22.743 12.9682 22.4511 12.8501 22.2328 12.6388C22.0145 12.4275 21.8869 12.1396 21.877 11.8359H21.8711C21.8722 11.8237 21.8738 11.8116 21.875 11.7994V11.7969C21.8753 11.7071 21.8859 11.6177 21.9066 11.5303C22.4187 7.71122 25.6891 4.76563 29.6484 4.76563C33.9632 4.76563 37.4609 8.2634 37.4609 12.5781C37.4609 16.8798 33.9844 20.3691 29.6875 20.3901ZM15.3906 14.2527V14.2578H8.39844C8.08764 14.2578 7.78957 14.1344 7.5698 13.9146C7.35003 13.6948 7.22656 13.3967 7.22656 13.0859C7.22656 12.7751 7.35003 12.4771 7.5698 12.2573C7.78957 12.0375 8.08764 11.9141 8.39844 11.9141H15.1562C15.8516 11.9141 16.5313 11.7079 17.1094 11.3216C17.6876 10.9353 18.1382 10.3862 18.4043 9.74382C18.6704 9.10142 18.74 8.39454 18.6043 7.71258C18.4687 7.03061 18.1338 6.40419 17.6422 5.91252C17.1505 5.42085 16.5241 5.08602 15.8421 4.95037C15.1602 4.81472 14.4533 4.88434 13.8109 5.15043C13.1685 5.41652 12.6194 5.86713 12.2331 6.44527C11.8468 7.02341 11.6406 7.70312 11.6406 8.39844H11.6387C11.6287 8.70211 11.5011 8.99001 11.2828 9.20131C11.0645 9.41261 10.7726 9.53074 10.4688 9.53074C10.1649 9.53074 9.873 9.41261 9.65468 9.20131C9.43636 8.99001 9.30876 8.70211 9.29883 8.39844H9.29688C9.29688 8.38801 9.29723 8.37762 9.29727 8.36719C9.29727 8.36458 9.29688 8.36204 9.29688 8.35938C9.29688 8.35497 9.2975 8.35071 9.29754 8.34633C9.30771 7.19974 9.65409 6.08132 10.2938 5.12968C10.9334 4.17804 11.8383 3.43502 12.8962 2.99267C13.954 2.55033 15.1185 2.42812 16.2452 2.64118C17.3718 2.85424 18.4112 3.39321 19.2345 4.1913C20.0579 4.98939 20.6289 6.01152 20.8769 7.13102C21.1249 8.25052 21.039 9.41819 20.6298 10.4893C20.2205 11.5605 19.506 12.488 18.5747 13.1569C17.6435 13.8259 16.5364 14.2069 15.3906 14.2527ZM3.71094 26.5234C3.47916 26.5234 3.25259 26.4547 3.05988 26.3259C2.86717 26.1972 2.71696 26.0142 2.62827 25.8C2.53957 25.5859 2.51636 25.3503 2.56158 25.1229C2.6068 24.8956 2.71841 24.6868 2.8823 24.5229C3.04619 24.359 3.255 24.2474 3.48232 24.2022C3.70964 24.157 3.94526 24.1802 4.1594 24.2689C4.37353 24.3576 4.55655 24.5078 4.68532 24.7005C4.81408 24.8932 4.88281 25.1198 4.88281 25.3516C4.88281 25.5055 4.8525 25.6578 4.79361 25.8C4.73472 25.9422 4.6484 26.0714 4.53958 26.1802C4.43076 26.289 4.30157 26.3753 4.1594 26.4342C4.01722 26.4931 3.86483 26.5234 3.71094 26.5234ZM3.71094 20.3906C3.47916 20.3906 3.25259 20.3219 3.05988 20.1931C2.86717 20.0644 2.71696 19.8813 2.62827 19.6672C2.53957 19.4531 2.51636 19.2175 2.56158 18.9901C2.6068 18.7628 2.71841 18.554 2.8823 18.3901C3.04619 18.2262 3.255 18.1146 3.48232 18.0694C3.70964 18.0242 3.94526 18.0474 4.1594 18.1361C4.37353 18.2248 4.55655 18.375 4.68532 18.5677C4.81408 18.7604 4.88281 18.987 4.88281 19.2188C4.88281 19.3726 4.8525 19.525 4.79361 19.6672C4.73472 19.8094 4.6484 19.9386 4.53958 20.0474C4.43076 20.1562 4.30157 20.2425 4.1594 20.3014C4.01722 20.3603 3.86483 20.3906 3.71094 20.3906ZM3.71094 14.2578C3.47916 14.2578 3.25259 14.1891 3.05988 14.0603C2.86717 13.9316 2.71696 13.7485 2.62827 13.5344C2.53957 13.3203 2.51636 13.0846 2.56158 12.8573C2.6068 12.63 2.71841 12.4212 2.8823 12.2573C3.04619 12.0934 3.255 11.9818 3.48232 11.9366C3.70964 11.8914 3.94526 11.9146 4.1594 12.0033C4.37353 12.092 4.55655 12.2422 4.68532 12.4349C4.81408 12.6276 4.88281 12.8542 4.88281 13.0859C4.88281 13.2398 4.8525 13.3922 4.79361 13.5344C4.73472 13.6766 4.6484 13.8058 4.53958 13.9146C4.43076 14.0234 4.30157 14.1097 4.1594 14.1686C4.01722 14.2275 3.86483 14.2578 3.71094 14.2578ZM8.39844 24.1797H24.6875V24.1889C25.9819 24.2575 27.2279 24.7033 28.272 25.4715C29.316 26.2398 30.1124 27.2967 30.563 28.5121C31.0135 29.7275 31.0985 31.0482 30.8075 32.3113C30.5164 33.5744 29.8621 34.7247 28.9251 35.6204C27.9882 36.5161 26.8096 37.118 25.5346 37.3519C24.2597 37.5858 22.9442 37.4414 21.7503 36.9367C20.5564 36.4319 19.5364 35.5887 18.8159 34.5111C18.0955 33.4336 17.7062 32.1687 17.696 30.8725C17.696 30.8682 17.6953 30.8639 17.6953 30.8595C17.6953 30.8568 17.6957 30.8543 17.6957 30.8517C17.6957 30.8413 17.6953 30.8309 17.6953 30.8204H17.6973C17.7072 30.5168 17.8348 30.2289 18.0531 30.0176C18.2714 29.8063 18.5634 29.6881 18.8672 29.6881C19.171 29.6881 19.4629 29.8063 19.6813 30.0176C19.8996 30.2289 20.0272 30.5168 20.0371 30.8204H20.0391C20.0391 31.6703 20.2911 32.501 20.7633 33.2076C21.2354 33.9142 21.9065 34.4649 22.6917 34.7901C23.4768 35.1153 24.3408 35.2004 25.1743 35.0346C26.0078 34.8688 26.7734 34.4596 27.3743 33.8586C27.9752 33.2577 28.3845 32.4921 28.5503 31.6586C28.716 30.825 28.6309 29.9611 28.3057 29.1759C27.9805 28.3908 27.4298 27.7197 26.7231 27.2476C26.0165 26.7754 25.1858 26.5234 24.3359 26.5234H8.39844C8.08764 26.5234 7.78957 26.4 7.5698 26.1802C7.35003 25.9604 7.22656 25.6624 7.22656 25.3516C7.22656 25.0408 7.35003 24.7427 7.5698 24.5229C7.78957 24.3032 8.08764 24.1797 8.39844 24.1797Z" fill="white"/>
</g>
</svg>
